<?xml version="1.0" standalone="yes"?><svg xmlns="http://www.w3.org/2000/svg" version="1.1" width="222" height="222" viewBox="0 0 222 222" shape-rendering="crispEdges"><rect x="0" y="0" width="222" height="222" fill="#ffffff"/><path fill="#000000" d="M24 24h6v6H24V24M30 24h6v6H30V24M36 24h6v6H36V24M42 24h6v6H42V24M48 24h6v6H48V24M54 24h6v6H54V24M60 24h6v6H60V24M84 24h6v6H84V24M90 24h6v6H90V24M108 24h6v6H108V24M126 24h6v6H126V24M132 24h6v6H132V24M138 24h6v6H138V24M156 24h6v6H156V24M162 24h6v6H162V24M168 24h6v6H168V24M174 24h6v6H174V24M180 24h6v6H180V24M186 24h6v6H186V24M192 24h6v6H192V24M24 30h6v6H24V30M60 30h6v6H60V30M90 30h6v6H90V30M120 30h6v6H120V30M126 30h6v6H126V30M132 30h6v6H132V30M144 30h6v6H144V30M156 30h6v6H156V30M192 30h6v6H192V30M24 36h6v6H24V36M36 36h6v6H36V36M42 36h6v6H42V36M48 36h6v6H48V36M60 36h6v6H60V36M78 36h6v6H78V36M84 36h6v6H84V36M96 36h6v6H96V36M108 36h6v6H108V36M114 36h6v6H114V36M126 36h6v6H126V36M132 36h6v6H132V36M144 36h6v6H144V36M156 36h6v6H156V36M168 36h6v6H168V36M174 36h6v6H174V36M180 36h6v6H180V36M192 36h6v6H192V36M24 42h6v6H24V42M36 42h6v6H36V42M42 42h6v6H42V42M48 42h6v6H48V42M60 42h6v6H60V42M78 42h6v6H78V42M84 42h6v6H84V42M102 42h6v6H102V42M132 42h6v6H132V42M138 42h6v6H138V42M156 42h6v6H156V42M168 42h6v6H168V42M174 42h6v6H174V42M180 42h6v6H180V42M192 42h6v6H192V42M24 48h6v6H24V48M36 48h6v6H36V48M42 48h6v6H42V48M48 48h6v6H48V48M60 48h6v6H60V48M84 48h6v6H84V48M96 48h6v6H96V48M126 48h6v6H126V48M132 48h6v6H132V48M156 48h6v6H156V48M168 48h6v6H168V48M174 48h6v6H174V48M180 48h6v6H180V48M192 48h6v6H192V48M24 54h6v6H24V54M60 54h6v6H60V54M72 54h6v6H72V54M84 54h6v6H84V54M90 54h6v6H90V54M114 54h6v6H114V54M138 54h6v6H138V54M144 54h6v6H144V54M156 54h6v6H156V54M192 54h6v6H192V54M24 60h6v6H24V60M30 60h6v6H30V60M36 60h6v6H36V60M42 60h6v6H42V60M48 60h6v6H48V60M54 60h6v6H54V60M60 60h6v6H60V60M72 60h6v6H72V60M84 60h6v6H84V60M96 60h6v6H96V60M108 60h6v6H108V60M120 60h6v6H120V60M132 60h6v6H132V60M144 60h6v6H144V60M156 60h6v6H156V60M162 60h6v6H162V60M168 60h6v6H168V60M174 60h6v6H174V60M180 60h6v6H180V60M186 60h6v6H186V60M192 60h6v6H192V60M90 66h6v6H90V66M96 66h6v6H96V66M102 66h6v6H102V66M114 66h6v6H114V66M126 66h6v6H126V66M132 66h6v6H132V66M24 72h6v6H24V72M42 72h6v6H42V72M54 72h6v6H54V72M60 72h6v6H60V72M72 72h6v6H72V72M108 72h6v6H108V72M120 72h6v6H120V72M138 72h6v6H138V72M150 72h6v6H150V72M162 72h6v6H162V72M24 78h6v6H24V78M36 78h6v6H36V78M48 78h6v6H48V78M78 78h6v6H78V78M102 78h6v6H102V78M120 78h6v6H120V78M126 78h6v6H126V78M144 78h6v6H144V78M156 78h6v6H156V78M174 78h6v6H174V78M192 78h6v6H192V78M36 84h6v6H36V84M42 84h6v6H42V84M60 84h6v6H60V84M72 84h6v6H72V84M78 84h6v6H78V84M90 84h6v6H90V84M96 84h6v6H96V84M102 84h6v6H102V84M108 84h6v6H108V84M120 84h6v6H120V84M132 84h6v6H132V84M138 84h6v6H138V84M144 84h6v6H144V84M168 84h6v6H168V84M174 84h6v6H174V84M180 84h6v6H180V84M186 84h6v6H186V84M30 90h6v6H30V90M48 90h6v6H48V90M66 90h6v6H66V90M72 90h6v6H72V90M84 90h6v6H84V90M90 90h6v6H90V90M96 90h6v6H96V90M102 90h6v6H102V90M114 90h6v6H114V90M120 90h6v6H120V90M132 90h6v6H132V90M138 90h6v6H138V90M144 90h6v6H144V90M156 90h6v6H156V90M162 90h6v6H162V90M180 90h6v6H180V90M186 90h6v6H186V90M24 96h6v6H24V96M30 96h6v6H30V96M42 96h6v6H42V96M48 96h6v6H48V96M54 96h6v6H54V96M60 96h6v6H60V96M72 96h6v6H72V96M90 96h6v6H90V96M108 96h6v6H108V96M126 96h6v6H126V96M132 96h6v6H132V96M150 96h6v6H150V96M156 96h6v6H156V96M174 96h6v6H174V96M186 96h6v6H186V96M192 96h6v6H192V96M42 102h6v6H42V102M54 102h6v6H54V102M66 102h6v6H66V102M72 102h6v6H72V102M78 102h6v6H78V102M90 102h6v6H90V102M96 102h6v6H96V102M102 102h6v6H102V102M108 102h6v6H108V102M138 102h6v6H138V102M144 102h6v6H144V102M150 102h6v6H150V102M30 108h6v6H30V108M36 108h6v6H36V108M48 108h6v6H48V108M60 108h6v6H60V108M66 108h6v6H66V108M72 108h6v6H72V108M96 108h6v6H96V108M102 108h6v6H102V108M108 108h6v6H108V108M144 108h6v6H144V108M156 108h6v6H156V108M162 108h6v6H162V108M174 108h6v6H174V108M180 108h6v6H180V108M186 108h6v6H186V108M192 108h6v6H192V108M24 114h6v6H24V114M30 114h6v6H30V114M36 114h6v6H36V114M54 114h6v6H54V114M66 114h6v6H66V114M78 114h6v6H78V114M90 114h6v6H90V114M120 114h6v6H120V114M126 114h6v6H126V114M144 114h6v6H144V114M156 114h6v6H156V114M168 114h6v6H168V114M174 114h6v6H174V114M186 114h6v6H186V114M42 120h6v6H42V120M60 120h6v6H60V120M78 120h6v6H78V120M90 120h6v6H90V120M102 120h6v6H102V120M114 120h6v6H114V120M126 120h6v6H126V120M144 120h6v6H144V120M150 120h6v6H150V120M186 120h6v6H186V120M30 126h6v6H30V126M48 126h6v6H48V126M54 126h6v6H54V126M90 126h6v6H90V126M102 126h6v6H102V126M108 126h6v6H108V126M120 126h6v6H120V126M150 126h6v6H150V126M156 126h6v6H156V126M162 126h6v6H162V126M174 126h6v6H174V126M192 126h6v6H192V126M24 132h6v6H24V132M36 132h6v6H36V132M42 132h6v6H42V132M48 132h6v6H48V132M54 132h6v6H54V132M60 132h6v6H60V132M72 132h6v6H72V132M78 132h6v6H78V132M108 132h6v6H108V132M120 132h6v6H120V132M144 132h6v6H144V132M156 132h6v6H156V132M162 132h6v6H162V132M168 132h6v6H168V132M186 132h6v6H186V132M192 132h6v6H192V132M36 138h6v6H36V138M54 138h6v6H54V138M72 138h6v6H72V138M90 138h6v6H90V138M96 138h6v6H96V138M108 138h6v6H108V138M114 138h6v6H114V138M126 138h6v6H126V138M138 138h6v6H138V138M144 138h6v6H144V138M156 138h6v6H156V138M162 138h6v6H162V138M186 138h6v6H186V138M192 138h6v6H192V138M24 144h6v6H24V144M60 144h6v6H60V144M72 144h6v6H72V144M78 144h6v6H78V144M114 144h6v6H114V144M120 144h6v6H120V144M138 144h6v6H138V144M144 144h6v6H144V144M150 144h6v6H150V144M156 144h6v6H156V144M162 144h6v6H162V144M168 144h6v6H168V144M180 144h6v6H180V144M72 150h6v6H72V150M84 150h6v6H84V150M90 150h6v6H90V150M108 150h6v6H108V150M120 150h6v6H120V150M126 150h6v6H126V150M138 150h6v6H138V150M144 150h6v6H144V150M168 150h6v6H168V150M180 150h6v6H180V150M186 150h6v6H186V150M192 150h6v6H192V150M24 156h6v6H24V156M30 156h6v6H30V156M36 156h6v6H36V156M42 156h6v6H42V156M48 156h6v6H48V156M54 156h6v6H54V156M60 156h6v6H60V156M90 156h6v6H90V156M120 156h6v6H120V156M144 156h6v6H144V156M156 156h6v6H156V156M168 156h6v6H168V156M186 156h6v6H186V156M24 162h6v6H24V162M60 162h6v6H60V162M72 162h6v6H72V162M90 162h6v6H90V162M108 162h6v6H108V162M132 162h6v6H132V162M138 162h6v6H138V162M144 162h6v6H144V162M168 162h6v6H168V162M174 162h6v6H174V162M180 162h6v6H180V162M192 162h6v6H192V162M24 168h6v6H24V168M36 168h6v6H36V168M42 168h6v6H42V168M48 168h6v6H48V168M60 168h6v6H60V168M78 168h6v6H78V168M90 168h6v6H90V168M120 168h6v6H120V168M126 168h6v6H126V168M144 168h6v6H144V168M150 168h6v6H150V168M156 168h6v6H156V168M162 168h6v6H162V168M168 168h6v6H168V168M192 168h6v6H192V168M24 174h6v6H24V174M36 174h6v6H36V174M42 174h6v6H42V174M48 174h6v6H48V174M60 174h6v6H60V174M72 174h6v6H72V174M78 174h6v6H78V174M96 174h6v6H96V174M102 174h6v6H102V174M126 174h6v6H126V174M132 174h6v6H132V174M138 174h6v6H138V174M156 174h6v6H156V174M162 174h6v6H162V174M168 174h6v6H168V174M174 174h6v6H174V174M180 174h6v6H180V174M186 174h6v6H186V174M24 180h6v6H24V180M36 180h6v6H36V180M42 180h6v6H42V180M48 180h6v6H48V180M60 180h6v6H60V180M78 180h6v6H78V180M90 180h6v6H90V180M96 180h6v6H96V180M102 180h6v6H102V180M138 180h6v6H138V180M150 180h6v6H150V180M168 180h6v6H168V180M174 180h6v6H174V180M180 180h6v6H180V180M192 180h6v6H192V180M24 186h6v6H24V186M60 186h6v6H60V186M84 186h6v6H84V186M102 186h6v6H102V186M120 186h6v6H120V186M126 186h6v6H126V186M138 186h6v6H138V186M144 186h6v6H144V186M150 186h6v6H150V186M162 186h6v6H162V186M186 186h6v6H186V186M24 192h6v6H24V192M30 192h6v6H30V192M36 192h6v6H36V192M42 192h6v6H42V192M48 192h6v6H48V192M54 192h6v6H54V192M60 192h6v6H60V192M72 192h6v6H72V192M90 192h6v6H90V192M102 192h6v6H102V192M114 192h6v6H114V192M126 192h6v6H126V192M132 192h6v6H132V192M144 192h6v6H144V192M162 192h6v6H162V192M174 192h6v6H174V192M186 192h6v6H186V192"/></svg>